<?xml version="1.0" encoding="utf-8"?>
<!-- Generator: Adobe Illustrator 25.2.0, SVG Export Plug-In . SVG Version: 6.00 Build 0)  -->
<svg version="1.1" id="Laag_1" focusable="false" xmlns="http://www.w3.org/2000/svg" xmlns:xlink="http://www.w3.org/1999/xlink"
	 x="0px" y="0px" viewBox="0 0 576 512" style="enable-background:new 0 0 576 512;" xml:space="preserve">
<style type="text/css">
	.st0{fill:#FFFFFF;stroke:#000000;stroke-miterlimit:10;}
</style>
<path class="st0" d="M528,32H48C21.5,32,0,53.5,0,80v352c0,26.5,21.5,48,48,48h480c26.5,0,48-21.5,48-48V80
	C576,53.5,554.5,32,528,32z M528,432H48V80h480V432z M208,256c35.3,0,64-28.7,64-64s-28.7-64-64-64s-64,28.7-64,64
	S172.7,256,208,256z M118.4,384h179.2c12.4,0,22.4-8.6,22.4-19.2v-19.2c0-31.8-30.1-57.6-67.2-57.6c-10.8,0-18.7,8-44.8,8
	c-26.9,0-33.4-8-44.8-8c-37.1,0-67.2,25.8-67.2,57.6v19.2C96,375.4,106,384,118.4,384z M360,320h112c4.4,0,8-3.6,8-8v-16
	c0-4.4-3.6-8-8-8H360c-4.4,0-8,3.6-8,8v16C352,316.4,355.6,320,360,320z M360,256h112c4.4,0,8-3.6,8-8v-16c0-4.4-3.6-8-8-8H360
	c-4.4,0-8,3.6-8,8v16C352,252.4,355.6,256,360,256z M360,192h112c4.4,0,8-3.6,8-8v-16c0-4.4-3.6-8-8-8H360c-4.4,0-8,3.6-8,8v16
	C352,188.4,355.6,192,360,192z"/>
</svg>
